<?xml version="1.0" standalone="no"?><!DOCTYPE svg PUBLIC "-//W3C//DTD SVG 1.1//EN" "http://www.w3.org/Graphics/SVG/1.1/DTD/svg11.dtd"><svg t="1649150105827" class="icon" viewBox="0 0 1024 1024" version="1.1" xmlns="http://www.w3.org/2000/svg" p-id="2246" xmlns:xlink="http://www.w3.org/1999/xlink" width="200" height="200"><defs><style type="text/css">@font-face { font-family: feedback-iconfont; src: url("//at.alicdn.com/t/font_1031158_u69w8yhxdu.woff2?t=1630033759944") format("woff2"), url("//at.alicdn.com/t/font_1031158_u69w8yhxdu.woff?t=1630033759944") format("woff"), url("//at.alicdn.com/t/font_1031158_u69w8yhxdu.ttf?t=1630033759944") format("truetype"); }
</style></defs><path d="M383.143167 37.235526c6.790725 0 18.488806 4.936346 29.318178 15.963652 10.942334 11.141268 15.838694 23.212224 15.838694 30.233872l0 299.649617c0 6.843707-5.028316 18.753718-16.260553 29.935971-11.28422 11.233237-23.364173 16.261552-30.32984 16.261552L82.563861 429.280191c-6.617783 0-18.158917-5.066303-29.030275-16.383512-11.140268-11.598115-16.125598-24.049943-16.125598-31.246532L37.407988 84.867569c0-7.017649 5.117286-19.308532 16.550456-30.945633 11.324206-11.526139 23.247212-16.68541 30.039937-16.68541L383.143167 37.235526M383.143167 0 83.997381 0C44.827503 0 0.171463 45.913619 0.171463 84.867569l0 296.782578c0 38.95395 43.221521 84.867569 82.392399 84.867569l299.145786 0c39.167879 0 83.825918-44.480099 83.825918-83.43405L465.535566 83.43405C465.535566 44.481099 422.312045 0 383.143167 0L383.143167 0zM939.336842 37.235526c6.789725 0 18.488806 4.936346 29.318178 15.963652 10.942334 11.141268 15.838694 23.212224 15.838694 30.233872l0 299.649617c0 6.843707-5.028316 18.753718-16.260553 29.935971-11.28422 11.233237-23.363173 16.261552-30.32984 16.261552L638.757536 429.280191c-6.617783 0-18.158917-5.066303-29.030275-16.383512-11.140268-11.598115-16.125598-24.049943-16.125598-31.246532L593.601663 84.867569c0-7.017649 5.117286-19.308532 16.550456-30.945633 11.323207-11.526139 23.247212-16.68541 30.039937-16.68541L939.336842 37.235526M939.336842 0 640.191056 0c-39.169878 0-83.825918 45.913619-83.825918 84.867569l0 296.782578c0 38.95395 43.221521 84.867569 82.392399 84.867569l299.145786 0c39.167879 0 83.825918-44.480099 83.825918-83.43405L1021.729241 83.43405C1021.729241 44.481099 978.50672 0 939.336842 0L939.336842 0zM383.143167 594.645794c6.790725 0 18.487807 4.936346 29.318178 15.963652 10.942334 11.141268 15.838694 23.212224 15.838694 30.233872l0 299.649617c0 6.843707-5.028316 18.753718-16.260553 29.935971-11.28422 11.233237-23.364173 16.261552-30.32984 16.261552L82.563861 986.690459c-6.617783 0-18.158917-5.065303-29.030275-16.383512-11.140268-11.598115-16.125598-24.049943-16.125598-31.247532L37.407988 642.276837c0-7.017649 5.117286-19.308532 16.550456-30.945633 11.324206-11.526139 23.247212-16.68541 30.039937-16.68541L383.143167 594.645794M383.143167 557.409268 83.997381 557.409268C44.827503 557.409268 0.171463 603.322887 0.171463 642.276837l0 296.782578c0 38.95395 43.221521 84.867569 82.392399 84.867569l299.145786 0c39.167879 0 83.825918-44.480099 83.825918-83.43405l0-299.649617C465.535566 601.890367 422.312045 557.409268 383.143167 557.409268L383.143167 557.409268zM939.336842 594.645794c6.789725 0 18.488806 4.936346 29.318178 15.963652 10.942334 11.141268 15.838694 23.212224 15.838694 30.233872l0 299.649617c0 6.843707-5.028316 18.753718-16.260553 29.935971-11.28422 11.233237-23.364173 16.261552-30.32984 16.261552L638.757536 986.690459c-6.617783 0-18.158917-5.065303-29.030275-16.383512-11.140268-11.598115-16.125598-24.049943-16.125598-31.247532L593.601663 642.276837c0-7.017649 5.117286-19.308532 16.550456-30.945633 11.323207-11.526139 23.247212-16.68541 30.039937-16.68541L939.336842 594.645794M939.336842 557.409268 640.191056 557.409268c-39.169878 0-83.825918 45.913619-83.825918 84.867569l0 296.782578c0 38.95395 43.221521 84.867569 82.392399 84.867569l299.145786 0c39.167879 0 83.825918-44.480099 83.825918-83.43405l0-299.649617C1021.729241 601.890367 978.50672 557.409268 939.336842 557.409268L939.336842 557.409268z" p-id="2247"></path></svg>