<?xml version="1.0" standalone="no"?><!DOCTYPE svg PUBLIC "-//W3C//DTD SVG 1.1//EN" "http://www.w3.org/Graphics/SVG/1.1/DTD/svg11.dtd"><svg t="1649150112591" class="icon" viewBox="0 0 1024 1024" version="1.1" xmlns="http://www.w3.org/2000/svg" p-id="2381" xmlns:xlink="http://www.w3.org/1999/xlink" width="200" height="200"><defs><style type="text/css">@font-face { font-family: feedback-iconfont; src: url("//at.alicdn.com/t/font_1031158_u69w8yhxdu.woff2?t=1630033759944") format("woff2"), url("//at.alicdn.com/t/font_1031158_u69w8yhxdu.woff?t=1630033759944") format("woff"), url("//at.alicdn.com/t/font_1031158_u69w8yhxdu.ttf?t=1630033759944") format("truetype"); }
</style></defs><path d="M383.135726 0 83.975987 0C44.804151 0 0.145878 45.915914 0.145878 84.871812l0 296.796413c0 38.955898 43.223681 84.871812 82.396517 84.871812l299.159739 0c39.169837 0 83.830108-44.482323 83.830108-83.43822L465.532243 83.43822C465.532243 44.483322 422.306563 0 383.135726 0L383.135726 0zM939.356203 37.237387c6.790065 0 18.48973 4.936593 29.319644 15.96445 10.942881 11.141825 15.839486 23.213384 15.839486 30.235383L984.515333 383.100816c0 6.844049-5.028567 18.754655-16.261366 29.937468-11.284784 11.233798-23.364341 16.262365-30.331356 16.262365L638.761873 429.300649c-6.618114 0-18.159824-5.066556-29.031726-16.38433-11.140825-11.598694-16.126404-24.051145-16.126404-31.248094L593.603743 84.871812c0-7.018 5.117542-19.309497 16.551283-30.94718 11.323773-11.526715 23.248374-16.686244 30.041438-16.686244L939.356203 37.237387M939.356203 0 640.195464 0c-39.171836 0-83.830108 45.915914-83.830108 84.871812l0 296.796413c0 38.955898 43.223681 84.871812 82.396517 84.871812l299.159739 0c39.169837 0 83.830108-44.482323 83.830108-83.43822L1021.751721 83.43822C1021.751721 44.483322 978.52704 0 939.356203 0L939.356203 0zM383.135726 594.673518c6.791065 0 18.488731 4.936593 29.319644 15.96445 10.942881 11.141825 15.839486 23.213384 15.839486 30.235383l0 299.663596c0 6.844049-5.028567 18.754655-16.261366 29.937468-11.284784 11.233798-23.365341 16.262365-30.331356 16.262365L82.542395 986.73678c-6.618114 0-18.159824-5.065556-29.031726-16.38433-11.140825-11.598694-16.126404-24.051145-16.126404-31.249094L37.384265 642.306943c0-7.018 5.117542-19.309497 16.551283-30.94718 11.324772-11.526715 23.248374-16.686244 30.041438-16.686244L383.135726 594.673518M383.135726 557.436131 83.975987 557.436131C44.804151 557.436131 0.145878 603.351045 0.145878 642.306943l0 296.796413c0 38.955898 43.223681 84.871812 82.396517 84.871812l299.159739 0c39.169837 0 83.830108-44.482323 83.830108-83.43822L465.532243 640.873351C465.532243 601.918453 422.306563 557.436131 383.135726 557.436131L383.135726 557.436131zM939.356203 557.436131 640.195464 557.436131c-39.171836 0-83.830108 45.915914-83.830108 84.871812l0 296.796413c0 38.955898 43.223681 84.871812 82.396517 84.871812l299.159739 0c39.169837 0 83.830108-44.482323 83.830108-83.43822L1021.751721 640.873351C1021.751721 601.918453 978.52704 557.436131 939.356203 557.436131L939.356203 557.436131z" p-id="2382"></path></svg>